<?xml version="1.0"?><svg width="2000" height="2000" xmlns="http://www.w3.org/2000/svg" xmlns:xlink="http://www.w3.org/1999/xlink">
 <!-- Created with SVG-edit - http://svg-edit.googlecode.com/ -->
 <title>tennis large</title>
 <g>
  <title>Layer 1</title>
  <defs>
   <symbol id="svg_59">
    <title>dueling rackets</title>
    <g id="svg_62">
     <title>Layer 1</title>
     <g id="svg_63" transform="rotate(45, 417.264, 241.111)">
      <rect id="svg_65" height="20.911928" width="24.742966" fill="none" y="146.333404" x="403.379013"/>
      <rect id="svg_66" height="20.906915" width="24.715298" fill="none" y="68.710654" x="372.780344"/>
      <rect id="svg_68" height="20.900232" width="24.742966" fill="none" y="120.459154" x="403.379013"/>
      <rect id="svg_69" height="21.262799" width="24.742966" fill="none" y="42.473837" x="403.379013"/>
      <rect id="svg_70" height="20.607839" width="24.742966" fill="none" y="198.081905" x="403.379013"/>
      <rect id="svg_71" height="20.913599" width="24.742966" fill="none" y="172.214338" x="403.379013"/>
      <rect id="svg_72" height="20.900232" width="24.715298" fill="none" y="94.591587" x="372.780344"/>
      <rect id="svg_73" height="21.262799" width="24.715298" fill="none" y="42.473837" x="372.780344"/>
      <path id="svg_74" d="m397.493652,243.960815l0,-20.297073l-24.713318,0l0,7.836121c7.632385,5.654068 15.928772,9.884567 24.713318,12.460953z" fill="none"/>
      <path id="svg_75" d="m428.121979,245.950775l0,-22.287018l-24.74295,0l0,21.677185c4.543457,0.918945 9.154083,1.54715 13.887268,1.54715c3.67981,0 7.29248,-0.375916 10.855682,-0.937317z" fill="none"/>
      <rect id="svg_76" height="20.900232" width="24.715298" fill="none" y="120.459154" x="372.780344"/>
      <rect id="svg_77" height="20.607839" width="24.715298" fill="none" y="198.081905" x="372.780344"/>
      <rect id="svg_78" height="20.913599" width="24.715298" fill="none" y="172.214338" x="372.780344"/>
      <rect id="svg_79" height="20.911928" width="24.715298" fill="none" y="146.333404" x="372.780344"/>
      <path id="svg_80" d="m336.300293,167.245331l0,-20.911926l-8.68573,0c0.877441,7.209564 2.231201,14.190231 4.047394,20.911926l4.638336,0l0,0z" fill="none"/>
      <rect id="svg_81" height="20.906915" width="24.742966" fill="none" y="68.710654" x="403.379013"/>
      <rect id="svg_82" height="20.900232" width="24.715298" fill="none" y="94.591587" x="342.177722"/>
      <rect id="svg_83" height="20.906915" width="24.715298" fill="none" y="68.710654" x="342.177722"/>
      <rect id="svg_84" height="20.900232" width="24.715298" fill="none" y="120.459154" x="342.177722"/>
      <path id="svg_85" d="m366.891052,42.473839l-10.563202,0c-5.306305,5.856213 -10.098755,12.43087 -14.1521,19.785801l0,1.47699l24.715302,0l0,-21.262791l0,0z" fill="none"/>
      <path id="svg_86" d="m336.300293,120.459167l-9.658081,0c-0.102753,2.334099 -0.272705,4.639839 -0.272705,7.027435c0,4.698334 0.258881,9.314804 0.666016,13.874451l9.262787,0l0.001984,-20.901886l0,0z" fill="none"/>
      <rect id="svg_87" height="20.911928" width="24.715298" fill="none" y="146.333404" x="342.177722"/>
      <rect id="svg_88" height="20.913599" width="24.715298" fill="none" y="172.214338" x="342.177722"/>
      <path id="svg_89" d="m336.300293,172.21434l-3.250977,0c0.980225,3.162842 2.080994,6.238831 3.250977,9.25798l0,-9.25798l0,0z" fill="none"/>
      <rect id="svg_90" height="20.900232" width="24.742966" fill="none" y="94.591587" x="403.379013"/>
      <path id="svg_91" d="m336.300293,115.491821l0,-20.90023l-6.243073,0c-1.529633,6.6866 -2.662018,13.643883 -3.225281,20.90023l9.468353,0l0,0z" fill="none"/>
      <path id="svg_92" d="m336.300293,74.775711c-1.924927,4.735092 -3.588928,9.682381 -4.978241,14.840187l4.978241,0l0,-14.840187l0,0z" fill="none"/>
      <rect id="svg_93" height="20.913599" width="24.737037" fill="none" y="172.214338" x="433.991516"/>
      <path id="svg_94" d="m372.780334,28.05303l0,9.45347l24.713318,0l0,-20.729811c-8.784546,2.305731 -17.080933,6.12187 -24.713318,11.27634z" fill="none"/>
      <path id="svg_95" d="m464.609955,37.504829l8.79837,0c-2.802368,-2.67664 -5.745056,-5.11269 -8.79837,-7.363279l0,7.363279l0,0z" fill="none"/>
      <path id="svg_96" d="m403.379028,37.504829l24.74295,0l0,-22.5109c-3.563202,-0.49957 -7.175873,-0.83374 -10.851715,-0.83374c-4.735168,0 -9.345825,0.55472 -13.887299,1.37676l-0.003937,21.967879l0,0z" fill="none"/>
      <path id="svg_97" d="m366.891052,37.504829l0,-5.151119c-1.99408,1.603981 -3.897217,3.358341 -5.774689,5.151119l5.774689,0l0,0z" fill="none"/>
      <path id="svg_98" d="m489.325256,199.963242l0,-1.879669l-24.715302,0l0,20.607849l11.185699,0c5.019745,-5.567169 9.529602,-11.874496 13.529602,-18.72818z" fill="none"/>
      <path id="svg_99" d="m495.214539,146.333405l0,20.911926l7.644226,0c1.814209,-6.721695 3.169983,-13.702362 4.045471,-20.911926l-11.689697,0l0,0z" fill="none"/>
      <path id="svg_100" d="m495.214539,188.56662c2.379456,-5.221298 4.501953,-10.6548 6.256897,-16.353958l-6.256897,0l0,16.353958l0,0z" fill="none"/>
      <path id="svg_101" d="m495.214539,94.591591l0,20.90023l12.474243,0c-0.565186,-7.256348 -1.693665,-14.213631 -3.223328,-20.90023l-9.250916,0l0,0z" fill="none"/>
      <path id="svg_102" d="m366.891052,218.689728l0,-20.607819l-22.762756,0c4.256897,7.588837 9.126465,14.536087 14.604675,20.607819l8.158081,0l0,0z" fill="none"/>
      <rect id="svg_103" height="20.913599" width="24.715298" fill="none" y="172.214338" x="464.609948"/>
      <rect id="svg_104" height="20.607839" width="24.737037" fill="none" y="198.081905" x="433.991516"/>
      <path id="svg_105" d="m464.609955,223.663757l0,5.553802c2.156097,-1.740997 4.254913,-3.58725 6.290497,-5.553802l-6.290497,0l0,0z" fill="none"/>
      <path id="svg_106" d="m382.221008,251.507874c7.833954,11.094238 15.561188,22.833374 19.648132,31.499908c8.889282,18.764923 13.861572,41.830536 15.173828,48.380127l0.699615,0c1.298401,-6.549591 6.28653,-29.611847 15.175812,-48.380127c4.108673,-8.704956 11.859619,-20.520966 19.750916,-31.641937c-11.075073,4.96402 -22.974213,7.682434 -35.399048,7.682434c-12.29245,-0.001648 -24.098694,-2.661591 -35.049255,-7.540405z" fill="none"/>
      <path id="svg_107" d="m366.891052,223.663757l-3.264832,0c1.088928,1.045944 2.142303,2.145325 3.264832,3.132782l0,-3.132782l0,0z" fill="none"/>
      <rect id="svg_108" height="20.906915" width="24.715298" fill="none" y="68.710654" x="464.609948"/>
      <rect id="svg_109" height="20.906915" width="24.737037" fill="none" y="68.710654" x="433.991516"/>
      <rect id="svg_110" height="21.262799" width="24.737037" fill="none" y="42.473837" x="433.991516"/>
      <path id="svg_111" d="m433.991516,16.046551l0,21.458279l24.737061,0l0,-11.376579c-7.687744,-4.73175 -15.984131,-8.155251 -24.737061,-10.081699z" fill="none"/>
      <path id="svg_112" d="m458.726563,233.611786l0,-9.948044l-24.735046,0l0,21.105789c8.75293,-2.148682 17.049316,-5.954819 24.735046,-11.157745z" fill="none"/>
      <rect id="svg_113" height="20.900232" width="24.737037" fill="none" y="94.591587" x="433.991516"/>
      <rect id="svg_114" height="20.911928" width="24.715298" fill="none" y="146.333404" x="464.609948"/>
      <rect id="svg_115" height="20.900232" width="24.737037" fill="none" y="120.459154" x="433.991516"/>
      <rect id="svg_116" height="20.911928" width="24.737037" fill="none" y="146.333404" x="433.991516"/>
      <rect id="svg_117" height="20.900232" width="24.715298" fill="none" y="120.459154" x="464.609948"/>
      <rect id="svg_118" height="20.900232" width="24.715298" fill="none" y="94.591587" x="464.609948"/>
      <path id="svg_119" d="m464.609955,63.736629l24.715302,0l0,-6.46772c-3.345886,-5.376678 -7.067169,-10.308929 -11.126434,-14.795071l-13.588867,0l0,21.262791l0,0z" fill="none"/>
      <path id="svg_120" d="m495.214539,141.359375l12.268738,0c0.401184,-4.559647 0.666016,-9.176102 0.666016,-13.874458c0,-2.38591 -0.169983,-4.69165 -0.272766,-7.027428l-12.66394,0l0.001953,20.901886l0,0z" fill="none"/>
      <path id="svg_121" d="m495.214539,89.615898l7.984192,0c-1.992126,-7.406715 -4.569214,-14.382378 -7.652161,-20.906921l-0.332031,0l0,20.906921l0,0z" fill="none"/>
      <path id="svg_122" d="m522.526672,127.484917c0,-72.535107 -47.211243,-125.484917 -105.258392,-125.484917s-105.26828,52.94981 -105.26828,125.484917c0,38.662697 13.411011,73.47747 34.733032,97.580666l-1.055328,0.586456c0.332001,0.414368 33.195496,41.48468 42.839722,61.866943c7.549347,15.917847 12.203491,35.833984 13.901123,43.867279l-3.71936,0l0,3.052582l0,128.22171l-6.276642,6.347443l0,1.086029l0,10.126801l50.762604,0l0,-12.08667l-7.806305,-6.58136l0,-130.164886l-3.019714,0c1.691681,-8.033264 6.379395,-27.95108 13.895172,-43.867249c9.636322,-20.382263 42.505707,-61.452606 42.853546,-61.866974l-1.223328,-0.701736c21.272644,-24.074768 34.642151,-58.85614 34.642151,-97.467018l0,-0.000015zm-196.157166,0c0,-2.38591 0.169952,-4.69165 0.272705,-7.027428l9.658081,0l0,20.900223l-9.262817,0c-0.409088,-4.557983 -0.667969,-9.174438 -0.667969,-13.87278l0,-0.000015zm15.808228,13.874458l0,-20.900208l24.715271,0l0,20.900208l-24.715271,0l0,0zm24.713318,4.97403l0,20.911926l-24.713318,0l0,-20.911926l24.713318,0l0,0zm-24.713318,-30.841583l0,-20.90023l24.715271,0l0,20.90023l-24.715271,0l0,0zm0,-25.875923l0,-20.905251l24.715271,0l0,20.906921l-24.715271,-0.001671l0,0zm0,-25.879269l0,-1.47699c4.053345,-7.353271 8.847778,-13.927929 14.1521,-19.785801l10.563171,0l0,21.262791l-24.715271,0l0,0zm-5.877441,30.854961l0,20.90023l-9.46637,0c0.563232,-7.256348 1.691711,-14.213631 3.225281,-20.90023l6.241089,0l0,0zm-4.978241,-4.975693c1.387329,-5.157806 3.053314,-10.105095 4.978241,-14.840187l0,14.840187l-4.978241,0l0,0zm4.978241,56.717506l0,20.911926l-4.638336,0c-1.816193,-6.721695 -3.169952,-13.702362 -4.047394,-20.911926l8.68573,0l0,0zm0,25.880936l0,9.25798c-1.169983,-3.01915 -2.268799,-6.095139 -3.250977,-9.25798l3.250977,0l0,0zm5.877441,0l24.715271,0l0,20.913589l-24.715271,0l0,-20.913589l0,0zm85.944244,-77.622749l0,20.90023l-24.74295,0l0,-20.90023l24.74295,0l0,0zm-24.74295,-4.975693l0,-20.905251l24.74295,0l0,20.906921l-24.74295,-0.001671l0,0zm24.74295,30.843269l0,20.900208l-24.74295,0l0,-20.900208l24.74295,0l0,0zm0,25.874237l0,20.911926l-24.74295,0l0,-20.911926l24.74295,0l0,0zm0,25.880936l0,20.913589l-24.74295,0l0,-20.913589l24.74295,0l0,0zm0,25.867569l0,20.607819l-24.74295,0l0,-20.607819l24.74295,0l0,0zm0,-134.34528l-24.74295,0l0,-21.262791l24.74295,0l0,21.262791l0,0zm-30.628326,4.974018l0,20.906921l-24.713318,0l0,-20.906921l24.713318,0l0,0zm-24.713318,-4.974018l0,-21.262791l24.713318,0l0,21.262791l-24.713318,0l0,0zm24.713318,30.854969l0,20.90023l-24.713318,0l0,-20.90023l24.713318,0l0,0zm0,25.867569l0,20.900208l-24.713318,0l0,-20.900208l24.713318,0l0,0zm0,25.874237l0,20.911942l-24.713318,0l0,-20.911942l24.713318,0l0,0zm0,25.880936l0,20.913589l-24.713318,0l0,-20.913589l24.713318,0l0,0zm0,25.867569l0,20.607819l-24.713318,0l0,-20.607819l24.713318,0l0,0zm-24.713318,-160.57708l0,-9.45348c7.630402,-5.15447 15.930786,-8.97061 24.715302,-11.276329l0,20.729809l-24.715302,0l0,0zm24.713318,186.158928l0,20.297058c-8.784546,-2.576385 -17.0849,-6.806885 -24.715271,-12.460922l0,-7.836136l24.715271,0l0,0zm5.885376,0l24.74295,0l0,22.287018c-3.563202,0.561401 -7.175873,0.937332 -10.851715,0.937332c-4.735168,0 -9.345825,-0.626572 -13.887299,-1.547165l-0.003937,-21.677185l0,0zm30.612488,-30.537491l0,-20.913589l24.737061,0l0,20.913589l-24.737061,0l0,0zm24.735046,4.955643l0,20.607819l-24.735046,0l0,-20.607819l24.735046,0l0,0zm-24.735046,-30.836563l0,-20.911942l24.737061,0l0,20.911942l-24.737061,0l0,0zm0,-25.885971l0,-20.900208l24.737061,0l0,20.900208l-24.737061,0l0,0zm0,-25.867546l0,-20.90023l24.737061,0l0,20.90023l-24.737061,0l0,0zm0,-25.875931l0,-20.905251l24.737061,0l0,20.906921l-24.737061,-0.001671l0,0zm0,-25.879269l0,-21.262791l24.737061,0l0,21.262791l-24.737061,0l0,0zm24.735046,159.927128l0,9.948029c-7.68573,5.202927 -15.982117,9.010712 -24.73703,11.161041l0,-21.107376l24.73703,-0.001694l0,0zm-24.735046,-186.158936l0,-21.458282c8.75293,1.926451 17.051331,5.349951 24.737061,10.08337l0,11.376579l-24.737061,-0.001667l0,0zm55.33374,19.76408l0,6.467728l-24.715302,0l0,-21.262798l13.588867,0c4.059265,4.48447 7.778595,9.418388 11.126434,14.795071zm13.873474,32.346989l-7.984192,0l0,-20.905251l0.332031,0c3.082947,6.522873 5.660034,13.500198 7.652161,20.905251zm4.950562,37.869026c0,4.698357 -0.264832,9.314796 -0.666016,13.874458l-12.268738,0l0,-20.900215l12.664001,0c0.100769,2.334106 0.270752,4.639847 0.270752,7.025757zm-18.824036,-32.893333l0,20.90023l-24.715302,0l0,-20.90023l24.715302,0l0,0zm-24.715302,-4.975693l0,-20.905251l24.715302,0l0,20.906921l-24.715302,-0.001671l0,0zm24.715302,30.843269l0,20.900215l-24.715302,0l0,-20.900215l24.715302,0l0,0zm0,25.874245l0,20.911911l-24.715302,0l0,-20.911911l24.715302,0l0,0zm0,25.88092l0,20.913589l-24.715302,0l0,-20.913589l24.715302,0l0,0zm5.889282,-4.969009l0,-20.911911l11.69165,0c-0.875488,7.209549 -2.231201,14.190231 -4.045471,20.911911l-7.646179,0l0,0zm6.256897,4.969009c-1.754944,5.699158 -3.877441,11.13266 -6.256897,16.353958l0,-16.353958l6.256897,0l0,0zm-6.256897,-56.722511l0,-20.90023l9.250916,0c1.52771,6.6866 2.658142,13.643875 3.223328,20.90023l-12.474243,0l0,0zm-30.604584,82.59008l24.715302,0l0,1.879669c-3.997986,6.853683 -8.509857,13.161011 -13.529602,18.726501l-11.185699,0l0,-20.606171l0,0zm8.800354,-160.577072l-8.79837,0l0,-7.363293c3.051331,2.252262 5.996002,4.686642 8.79837,7.363293zm-45.28833,-22.510901l0,22.510901l-24.74295,0l0,-21.966211c4.543457,-0.82205 9.154083,-1.37676 13.887268,-1.37676c3.67981,-0.00167 7.29248,0.33249 10.855682,0.83207zm-61.230927,17.359771l0,5.151138l-5.774689,0c1.877472,-1.792801 3.782593,-3.54715 5.774689,-5.151138zm-22.762756,165.728203l22.766693,0l0,20.607819l-8.162018,0c-5.47821,-6.071671 -10.347778,-13.017288 -14.604675,-20.607819zm19.497925,25.581879l3.264832,0l0,3.132751c-1.120544,-0.987411 -2.175903,-2.086792 -3.264832,-3.132751zm69.290192,59.345688c-8.889282,18.766602 -13.875427,41.830566 -15.175812,48.380157l-0.699585,0c-1.312256,-6.549591 -6.284576,-29.613556 -15.173859,-48.380157c-4.086945,-8.668213 -11.816132,-20.40567 -19.648132,-31.498169c10.950531,4.875397 22.756805,7.538666 35.045288,7.538666c12.422882,0 24.327972,-2.721741 35.397064,-7.682404c-7.883362,11.119293 -15.636292,22.935272 -19.744965,31.641907zm31.693542,-53.791885l0,-5.553802l6.290497,0c-2.0336,1.966553 -4.134399,3.81279 -6.290497,5.553802z"/>
     </g>
     <g transform="rotate(-45, 225.264, 241.111)" id="svg_1">
      <rect id="svg_58" height="20.911928" width="24.742966" fill="none" y="146.333404" x="211.379013"/>
      <rect id="svg_57" height="20.906915" width="24.715298" fill="none" y="68.710654" x="180.780344"/>
      <rect id="svg_56" height="20.900232" width="24.742966" fill="none" y="120.459154" x="211.379013"/>
      <rect id="svg_55" height="21.262799" width="24.742966" fill="none" y="42.473837" x="211.379013"/>
      <rect id="svg_54" height="20.607839" width="24.742966" fill="none" y="198.081905" x="211.379013"/>
      <rect id="svg_53" height="20.913599" width="24.742966" fill="none" y="172.214338" x="211.379013"/>
      <rect id="svg_52" height="20.900232" width="24.715298" fill="none" y="94.591587" x="180.780344"/>
      <rect id="svg_51" height="21.262799" width="24.715298" fill="none" y="42.473837" x="180.780344"/>
      <path id="svg_50" d="m205.493652,243.960815l0,-20.297073l-24.713318,0l0,7.836121c7.632385,5.654068 15.928772,9.884567 24.713318,12.460953z" fill="none"/>
      <path id="svg_49" d="m236.121979,245.950775l0,-22.287018l-24.74295,0l0,21.677185c4.543457,0.918945 9.154083,1.54715 13.887268,1.54715c3.67981,0 7.29248,-0.375916 10.855682,-0.937317z" fill="none"/>
      <rect id="svg_48" height="20.900232" width="24.715298" fill="none" y="120.459154" x="180.780344"/>
      <rect id="svg_47" height="20.607839" width="24.715298" fill="none" y="198.081905" x="180.780344"/>
      <rect id="svg_46" height="20.913599" width="24.715298" fill="none" y="172.214338" x="180.780344"/>
      <rect id="svg_45" height="20.911928" width="24.715298" fill="none" y="146.333404" x="180.780344"/>
      <path id="svg_44" d="m144.300293,167.245331l0,-20.911926l-8.68573,0c0.877441,7.209564 2.231201,14.190231 4.047394,20.911926l4.638336,0l0,0z" fill="none"/>
      <rect id="svg_43" height="20.906915" width="24.742966" fill="none" y="68.710654" x="211.379013"/>
      <rect id="svg_42" height="20.900232" width="24.715298" fill="none" y="94.591587" x="150.177722"/>
      <rect id="svg_41" height="20.906915" width="24.715298" fill="none" y="68.710654" x="150.177722"/>
      <rect id="svg_40" height="20.900232" width="24.715298" fill="none" y="120.459154" x="150.177722"/>
      <path id="svg_39" d="m174.891052,42.473839l-10.563202,0c-5.306305,5.856213 -10.098755,12.43087 -14.1521,19.785801l0,1.47699l24.715302,0l0,-21.262791l0,0z" fill="none"/>
      <path id="svg_38" d="m144.300293,120.459167l-9.658081,0c-0.102753,2.334099 -0.272705,4.639839 -0.272705,7.027435c0,4.698334 0.258881,9.314804 0.665985,13.874451l9.262817,0l0.001984,-20.901886l0,0z" fill="none"/>
      <rect id="svg_37" height="20.911928" width="24.715298" fill="none" y="146.333404" x="150.177722"/>
      <rect id="svg_36" height="20.913599" width="24.715298" fill="none" y="172.214338" x="150.177722"/>
      <path id="svg_35" d="m144.300293,172.21434l-3.250977,0c0.980225,3.162842 2.080994,6.238831 3.250977,9.25798l0,-9.25798l0,0z" fill="none"/>
      <rect id="svg_34" height="20.900232" width="24.742966" fill="none" y="94.591587" x="211.379013"/>
      <path id="svg_33" d="m144.300293,115.491821l0,-20.90023l-6.243073,0c-1.529633,6.6866 -2.662048,13.643883 -3.225281,20.90023l9.468353,0l0,0z" fill="none"/>
      <path id="svg_32" d="m144.300293,74.775711c-1.924896,4.735092 -3.588928,9.682381 -4.978241,14.840187l4.978241,0l0,-14.840187l0,0z" fill="none"/>
      <rect id="svg_31" height="20.913599" width="24.737037" fill="none" y="172.214338" x="241.991516"/>
      <path id="svg_30" d="m180.780334,28.05303l0,9.45347l24.713318,0l0,-20.729811c-8.784546,2.305731 -17.080933,6.12187 -24.713318,11.27634z" fill="none"/>
      <path id="svg_29" d="m272.609955,37.504829l8.79837,0c-2.802368,-2.67664 -5.745056,-5.11269 -8.79837,-7.363279l0,7.363279l0,0z" fill="none"/>
      <path id="svg_28" d="m211.379028,37.504829l24.74295,0l0,-22.5109c-3.563202,-0.49957 -7.175873,-0.83374 -10.851715,-0.83374c-4.735168,0 -9.345825,0.55471 -13.887299,1.37676l-0.003937,21.967879l0,0z" fill="none"/>
      <path id="svg_27" d="m174.891052,37.504829l0,-5.151119c-1.99408,1.603981 -3.897217,3.358341 -5.774689,5.151119l5.774689,0l0,0z" fill="none"/>
      <path id="svg_26" d="m297.325256,199.963242l0,-1.879669l-24.715302,0l0,20.607849l11.185699,0c5.019745,-5.567169 9.529602,-11.874496 13.529602,-18.72818z" fill="none"/>
      <path id="svg_25" d="m303.214539,146.333405l0,20.911926l7.644226,0c1.814209,-6.721695 3.169983,-13.702362 4.045471,-20.911926l-11.689697,0l0,0z" fill="none"/>
      <path id="svg_24" d="m303.214539,188.56662c2.379456,-5.221298 4.501953,-10.6548 6.256897,-16.353958l-6.256897,0l0,16.353958l0,0z" fill="none"/>
      <path id="svg_23" d="m303.214539,94.591591l0,20.90023l12.474243,0c-0.565186,-7.256348 -1.693665,-14.213631 -3.223297,-20.90023l-9.250946,0l0,0z" fill="none"/>
      <path id="svg_22" d="m174.891052,218.689728l0,-20.607819l-22.762756,0c4.256897,7.588837 9.126465,14.536087 14.604675,20.607819l8.158081,0l0,0z" fill="none"/>
      <rect id="svg_21" height="20.913599" width="24.715298" fill="none" y="172.214338" x="272.609948"/>
      <rect id="svg_20" height="20.607839" width="24.737037" fill="none" y="198.081905" x="241.991516"/>
      <path id="svg_19" d="m272.609955,223.663757l0,5.553802c2.156097,-1.740997 4.254913,-3.58725 6.290497,-5.553802l-6.290497,0l0,0z" fill="none"/>
      <path id="svg_18" d="m190.221008,251.507874c7.833954,11.094238 15.561188,22.833374 19.648132,31.499908c8.889282,18.764923 13.861572,41.830536 15.173828,48.380127l0.699615,0c1.298401,-6.549591 6.28653,-29.611847 15.175812,-48.380127c4.108673,-8.704956 11.859619,-20.520966 19.750916,-31.641937c-11.075073,4.96402 -22.974213,7.682434 -35.399048,7.682434c-12.29245,-0.001648 -24.098694,-2.661591 -35.049255,-7.540405z" fill="none"/>
      <path id="svg_17" d="m174.891052,223.663757l-3.264832,0c1.088928,1.045944 2.142303,2.145325 3.264832,3.132782l0,-3.132782l0,0z" fill="none"/>
      <rect id="svg_16" height="20.906915" width="24.715298" fill="none" y="68.710654" x="272.609948"/>
      <rect id="svg_15" height="20.906915" width="24.737037" fill="none" y="68.710654" x="241.991516"/>
      <rect id="svg_14" height="21.262799" width="24.737037" fill="none" y="42.473837" x="241.991516"/>
      <path id="svg_13" d="m241.991516,16.046551l0,21.458279l24.737061,0l0,-11.376579c-7.687744,-4.73175 -15.984131,-8.155251 -24.737061,-10.081699z" fill="none"/>
      <path id="svg_12" d="m266.726563,233.611786l0,-9.948044l-24.735046,0l0,21.105789c8.75293,-2.148682 17.049316,-5.954834 24.735046,-11.157745z" fill="none"/>
      <rect id="svg_11" height="20.900232" width="24.737037" fill="none" y="94.591587" x="241.991516"/>
      <rect id="svg_10" height="20.911928" width="24.715298" fill="none" y="146.333404" x="272.609948"/>
      <rect id="svg_9" height="20.900232" width="24.737037" fill="none" y="120.459154" x="241.991516"/>
      <rect id="svg_8" height="20.911928" width="24.737037" fill="none" y="146.333404" x="241.991516"/>
      <rect id="svg_7" height="20.900232" width="24.715298" fill="none" y="120.459154" x="272.609948"/>
      <rect id="svg_6" height="20.900232" width="24.715298" fill="none" y="94.591587" x="272.609948"/>
      <path id="svg_5" d="m272.609955,63.736629l24.715302,0l0,-6.46772c-3.345856,-5.376678 -7.067169,-10.308929 -11.126434,-14.795071l-13.588867,0l0,21.262791l0,0z" fill="none"/>
      <path id="svg_4" d="m303.214539,141.359375l12.268738,0c0.401184,-4.559647 0.665985,-9.176102 0.665985,-13.874458c0,-2.38591 -0.169952,-4.69165 -0.272736,-7.027428l-12.66394,0l0.001953,20.901886l0,0z" fill="none"/>
      <path id="svg_3" d="m303.214539,89.615898l7.984161,0c-1.992096,-7.406715 -4.569153,-14.382378 -7.65213,-20.906921l-0.332031,0l0,20.906921l0,0z" fill="none"/>
      <path id="svg_2" d="m330.526672,127.484917c0,-72.535107 -47.211243,-125.484917 -105.258392,-125.484917s-105.26828,52.94981 -105.26828,125.484917c0,38.662697 13.411011,73.47747 34.733032,97.580666l-1.055328,0.586456c0.332001,0.414368 33.195496,41.48468 42.839722,61.866943c7.549347,15.917847 12.203491,35.833984 13.901123,43.867279l-3.71936,0l0,3.052582l0,128.22171l-6.276642,6.347443l0,1.086029l0,10.126801l50.762604,0l0,-12.08667l-7.806305,-6.58136l0,-130.164886l-3.019714,0c1.691681,-8.033264 6.379395,-27.95108 13.895172,-43.867249c9.636322,-20.382263 42.505737,-61.452606 42.853546,-61.866974l-1.223328,-0.701736c21.272644,-24.074768 34.642151,-58.85614 34.642151,-97.467018l0,-0.000015zm-196.157166,0c0,-2.38591 0.169952,-4.69165 0.272705,-7.027428l9.658081,0l0,20.900223l-9.262817,0c-0.409088,-4.557983 -0.667969,-9.174438 -0.667969,-13.87278l0,-0.000015zm15.808228,13.874458l0,-20.900208l24.715271,0l0,20.900208l-24.715271,0l0,0zm24.713318,4.97403l0,20.911926l-24.713318,0l0,-20.911926l24.713318,0l0,0zm-24.713318,-30.841583l0,-20.90023l24.715271,0l0,20.90023l-24.715271,0l0,0zm0,-25.875923l0,-20.905251l24.715271,0l0,20.906921l-24.715271,-0.001671l0,0zm0,-25.879269l0,-1.47699c4.053314,-7.353271 8.847778,-13.927929 14.1521,-19.785801l10.563171,0l0,21.262791l-24.715271,0l0,0zm-5.877441,30.854961l0,20.90023l-9.46637,0c0.563232,-7.256348 1.691681,-14.213631 3.225281,-20.90023l6.241089,0l0,0zm-4.978241,-4.975693c1.387329,-5.157806 3.053345,-10.105095 4.978241,-14.840187l0,14.840187l-4.978241,0l0,0zm4.978241,56.717506l0,20.911926l-4.638336,0c-1.816193,-6.721695 -3.169952,-13.702362 -4.047394,-20.911926l8.68573,0l0,0zm0,25.880936l0,9.25798c-1.169983,-3.01915 -2.268768,-6.095139 -3.250977,-9.25798l3.250977,0l0,0zm5.877441,0l24.715271,0l0,20.913589l-24.715271,0l0,-20.913589l0,0zm85.944244,-77.622749l0,20.90023l-24.74295,0l0,-20.90023l24.74295,0l0,0zm-24.74295,-4.975693l0,-20.905251l24.74295,0l0,20.906921l-24.74295,-0.001671l0,0zm24.74295,30.843269l0,20.900208l-24.74295,0l0,-20.900208l24.74295,0l0,0zm0,25.874237l0,20.911926l-24.74295,0l0,-20.911926l24.74295,0l0,0zm0,25.880936l0,20.913589l-24.74295,0l0,-20.913589l24.74295,0l0,0zm0,25.867569l0,20.607819l-24.74295,0l0,-20.607819l24.74295,0l0,0zm0,-134.34528l-24.74295,0l0,-21.262791l24.74295,0l0,21.262791l0,0zm-30.628326,4.974018l0,20.906921l-24.713318,0l0,-20.906921l24.713318,0l0,0zm-24.713318,-4.974018l0,-21.262791l24.713318,0l0,21.262791l-24.713318,0l0,0zm24.713318,30.854969l0,20.90023l-24.713318,0l0,-20.90023l24.713318,0l0,0zm0,25.867569l0,20.900208l-24.713318,0l0,-20.900208l24.713318,0l0,0zm0,25.874237l0,20.911942l-24.713318,0l0,-20.911942l24.713318,0l0,0zm0,25.880936l0,20.913589l-24.713318,0l0,-20.913589l24.713318,0l0,0zm0,25.867569l0,20.607819l-24.713318,0l0,-20.607819l24.713318,0l0,0zm-24.713318,-160.57708l0,-9.45348c7.630402,-5.15447 15.930786,-8.97061 24.715302,-11.276329l0,20.729809l-24.715302,0l0,0zm24.713318,186.158928l0,20.297058c-8.784546,-2.576385 -17.0849,-6.806885 -24.715271,-12.460922l0,-7.836136l24.715271,0l0,0zm5.885376,0l24.74295,0l0,22.287018c-3.563202,0.561401 -7.175873,0.937332 -10.851715,0.937332c-4.735168,0 -9.345825,-0.626572 -13.887299,-1.547165l-0.003937,-21.677185l0,0zm30.612488,-30.537491l0,-20.913589l24.737061,0l0,20.913589l-24.737061,0l0,0zm24.735046,4.955643l0,20.607819l-24.735046,0l0,-20.607819l24.735046,0l0,0zm-24.735046,-30.836563l0,-20.911942l24.737061,0l0,20.911942l-24.737061,0l0,0zm0,-25.885971l0,-20.900208l24.737061,0l0,20.900208l-24.737061,0l0,0zm0,-25.867546l0,-20.90023l24.737061,0l0,20.90023l-24.737061,0l0,0zm0,-25.875931l0,-20.905251l24.737061,0l0,20.906921l-24.737061,-0.001671l0,0zm0,-25.879269l0,-21.262791l24.737061,0l0,21.262791l-24.737061,0l0,0zm24.735046,159.927128l0,9.948029c-7.68573,5.202911 -15.982117,9.010712 -24.73703,11.161041l0,-21.107376l24.73703,-0.001694l0,0zm-24.735046,-186.158936l0,-21.458282c8.75293,1.926451 17.051331,5.349951 24.737061,10.08337l0,11.376579l-24.737061,-0.001667l0,0zm55.33374,19.76408l0,6.467728l-24.715302,0l0,-21.262798l13.588867,0c4.059265,4.484478 7.778595,9.418388 11.126434,14.795071zm13.873444,32.346989l-7.984161,0l0,-20.905251l0.332031,0c3.082977,6.522873 5.660034,13.500198 7.65213,20.905251zm4.950562,37.869026c0,4.698357 -0.264801,9.314796 -0.665985,13.874458l-12.268738,0l0,-20.900215l12.663971,0c0.1008,2.334106 0.270752,4.639847 0.270752,7.025757zm-18.824005,-32.893333l0,20.90023l-24.715302,0l0,-20.90023l24.715302,0l0,0zm-24.715302,-4.975693l0,-20.905251l24.715302,0l0,20.906921l-24.715302,-0.001671l0,0zm24.715302,30.843269l0,20.900215l-24.715302,0l0,-20.900215l24.715302,0l0,0zm0,25.874245l0,20.911911l-24.715302,0l0,-20.911911l24.715302,0l0,0zm0,25.88092l0,20.913589l-24.715302,0l0,-20.913589l24.715302,0l0,0zm5.889282,-4.969009l0,-20.911911l11.69165,0c-0.875488,7.209549 -2.231201,14.190231 -4.045441,20.911911l-7.64621,0l0,0zm6.256897,4.969009c-1.754944,5.699158 -3.877441,11.13266 -6.256897,16.353958l0,-16.353958l6.256897,0l0,0zm-6.256897,-56.722511l0,-20.90023l9.250946,0c1.527679,6.6866 2.658112,13.643875 3.223297,20.90023l-12.474243,0l0,0zm-30.604584,82.59008l24.715302,0l0,1.879669c-3.998016,6.853683 -8.509857,13.161011 -13.529602,18.726501l-11.185699,0l0,-20.606171l0,0zm8.800354,-160.577072l-8.79837,0l0,-7.363293c3.051331,2.252262 5.996002,4.686642 8.79837,7.363293zm-45.28833,-22.510901l0,22.510901l-24.74295,0l0,-21.966211c4.543457,-0.82205 9.154083,-1.37676 13.887268,-1.37676c3.67981,-0.00167 7.29248,0.33249 10.855682,0.83207zm-61.230927,17.359771l0,5.151138l-5.774689,0c1.877472,-1.792801 3.782593,-3.54715 5.774689,-5.151138zm-22.762756,165.728203l22.766693,0l0,20.607819l-8.162018,0c-5.47821,-6.071671 -10.347778,-13.017288 -14.604675,-20.607819zm19.497925,25.581879l3.264832,0l0,3.132751c-1.120544,-0.987411 -2.175903,-2.086792 -3.264832,-3.132751zm69.290192,59.345688c-8.889282,18.766602 -13.875427,41.830566 -15.175812,48.380157l-0.699585,0c-1.312256,-6.549591 -6.284576,-29.613556 -15.173859,-48.380157c-4.086945,-8.668213 -11.816132,-20.40567 -19.648132,-31.498169c10.950531,4.875397 22.756805,7.538666 35.045288,7.538666c12.422882,0 24.327972,-2.721741 35.397064,-7.682404c-7.883362,11.119293 -15.636292,22.935272 -19.744965,31.641907zm31.693542,-53.791885l0,-5.553802l6.290497,0c-2.0336,1.966553 -4.134399,3.81279 -6.290497,5.553802z"/>
     </g>
    </g>
   </symbol>
  </defs>
  <use fill="black" id="svg_60" xlink:href="#svg_59" transform="matrix(3.38038, 0, 0, 3.38038, -482.835, -507.389)" y="109.191168" x="117.191145"/>
 </g>
</svg>